<svg width="30" height="33" viewBox="0 0 30 33" fill="none" xmlns="http://www.w3.org/2000/svg">
<path d="M29.674 13.4677H28.5009V13.4026H15.3941V19.6848H23.6244C22.4237 23.3418 19.1973 25.967 15.3941 25.967C10.5686 25.967 6.65624 21.7477 6.65624 16.5437C6.65624 11.3396 10.5686 7.12034 15.3941 7.12034C17.6215 7.12034 19.648 8.02655 21.1909 9.5068L25.3101 5.06449C22.7091 2.45031 19.23 0.838135 15.3941 0.838135C7.35162 0.838135 0.830994 7.87028 0.830994 16.5437C0.830994 25.217 7.35162 32.2492 15.3941 32.2492C23.4366 32.2492 29.9572 25.217 29.9572 16.5437C29.9572 15.4906 29.8567 14.4627 29.674 13.4677Z" fill="#FFC107"/>
<path d="M2.51019 9.23352L7.2949 13.0178C8.58956 9.56098 11.725 7.12034 15.3942 7.12034C17.6216 7.12034 19.6481 8.02655 21.191 9.5068L25.3102 5.06449C22.7092 2.45031 19.2301 0.838135 15.3942 0.838135C9.80048 0.838135 4.94951 4.24388 2.51019 9.23352Z" fill="#FF3D00"/>
<path d="M15.3941 32.2491C19.1558 32.2491 22.5737 30.6966 25.158 28.1719L20.6507 24.0586C19.1394 25.2981 17.2928 25.9685 15.3941 25.9669C11.6063 25.9669 8.39 23.3621 7.17835 19.7271L2.42932 23.6731C4.83952 28.7593 9.73418 32.2491 15.3941 32.2491Z" fill="#4CAF50"/>
<path d="M29.674 13.4675H28.5009V13.4023H15.3941V19.6846H23.6244C23.0501 21.425 22.0155 22.9459 20.6485 24.0593L20.6507 24.0578L25.1579 28.171C24.839 28.4836 29.9572 24.3962 29.9572 16.5434C29.9572 15.4904 29.8567 14.4625 29.674 13.4675Z" fill="#1976D2"/>
</svg>
